<?xml version="1.0" encoding="UTF-8"?>
<svg xmlns="http://www.w3.org/2000/svg" xmlns:xlink="http://www.w3.org/1999/xlink" width="595pt" height="574.1pt" viewBox="0 0 595 574.1" version="1.1">
<defs>
<clipPath id="clip1">
  <path d="M 0 7 L 567 7 L 567 574.101563 L 0 574.101563 Z M 0 7 "/>
</clipPath>
</defs>
<g id="surface1">
<g clip-path="url(#clip1)" clip-rule="nonzero">
<path style=" stroke:none;fill-rule:evenodd;fill:rgb(100%,0%,0%);fill-opacity:1;" d="M 283.464844 7.0625 C 440.019531 7.0625 566.929688 134.03125 566.929688 290.65625 C 566.929688 447.277344 440.019531 574.246094 283.464844 574.246094 C 126.910156 574.246094 0 447.277344 0 290.65625 C 0 134.03125 126.910156 7.0625 283.464844 7.0625 Z M 283.464844 7.0625 "/>
</g>
<path style="fill:none;stroke-width:141.732;stroke-linecap:butt;stroke-linejoin:miter;stroke:rgb(0%,0%,0%);stroke-opacity:1;stroke-miterlimit:4;" d="M 2834.648438 5670.375 C 4400.195313 5670.375 5669.296875 4400.6875 5669.296875 2834.4375 C 5669.296875 1268.226563 4400.195313 -1.460938 2834.648438 -1.460938 C 1269.101563 -1.460938 0 1268.226563 0 2834.4375 C 0 4400.6875 1269.101563 5670.375 2834.648438 5670.375 Z M 2834.648438 5670.375 " transform="matrix(0.1,0,0,-0.1,0,574.1)"/>
<path style=" stroke:none;fill-rule:evenodd;fill:rgb(78.514099%,0%,0%);fill-opacity:1;" d="M 283.464844 7.0625 C 440.019531 7.0625 566.929688 133.972656 566.929688 290.527344 C 566.929688 447.078125 440.019531 573.992188 283.464844 573.992188 C 126.910156 573.992188 0 447.078125 0 290.527344 C 0 133.972656 126.910156 7.0625 283.464844 7.0625 Z M 283.464844 7.0625 "/>
<path style="fill:none;stroke-width:141.732;stroke-linecap:butt;stroke-linejoin:miter;stroke:rgb(0%,0%,0%);stroke-opacity:1;stroke-miterlimit:4;" d="M 2834.648438 5670.375 C 4400.195313 5670.375 5669.296875 4401.273438 5669.296875 2835.726563 C 5669.296875 1270.21875 4400.195313 1.078125 2834.648438 1.078125 C 1269.101563 1.078125 0 1270.21875 0 2835.726563 C 0 4401.273438 1269.101563 5670.375 2834.648438 5670.375 Z M 2834.648438 5670.375 " transform="matrix(0.1,0,0,-0.1,0,574.1)"/>
<path style=" stroke:none;fill-rule:evenodd;fill:rgb(100%,0%,0%);fill-opacity:1;" d="M 243.339844 503.121094 C 270.414063 486.164063 296.839844 486.160156 322.617188 503.121094 M 256.601563 432.257813 C 274.832031 423.519531 292.417969 423.519531 309.371094 432.257813 M 267.210938 375.566406 C 278.363281 370.238281 288.882813 370.234375 298.769531 375.566406 M 288.171875 318.871094 C 285.347656 316.789063 281.898438 316.789063 277.820313 318.871094 C 273.746094 320.953125 230.984375 569.140625 230.984375 569.140625 M 231.460938 562.117188 C 266.773438 568.460938 301.441406 568.460938 335.46875 562.117188 M 325.28125 502.027344 C 344.402344 476.429688 369.042969 466.886719 399.207031 473.390625 M 312.050781 431.15625 C 325.890625 416.421875 342.292969 410.070313 361.253906 412.097656 M 301.464844 374.460938 C 309.9375 365.460938 319.746094 361.660156 330.890625 363.058594 M 300.527344 314.023438 C 297.140625 313.105469 293.925781 314.351563 290.878906 317.761719 C 287.828125 321.175781 337.609375 568.050781 337.609375 568.050781 M 335.515625 561.328125 C 370.738281 554.492188 403.066406 541.96875 432.5 523.757813 M 398.183594 473.699219 C 406.765625 442.925781 426.292969 425.121094 456.773438 420.289063 M 360.246094 412.394531 C 367.828125 393.65625 380.824219 381.804688 399.238281 376.847656 M 329.890625 363.351563 C 334.542969 351.898438 342.316406 344.8125 353.214844 342.089844 M 307.1875 307.328125 C 303.699219 307.699219 301.148438 310.023438 299.539063 314.304688 C 297.929688 318.585938 433.527344 530.8125 433.527344 530.8125 M 429.148438 525.296875 C 459.519531 506.203125 485.140625 482.847656 506.011719 455.230469 M 455.507813 421.636719 C 452.390625 389.839844 464.167969 366.183594 490.84375 350.664063 M 397.980469 378.175781 C 398.285156 357.960938 406.125 342.214844 421.503906 330.941406 M 351.960938 343.40625 C 352.164063 331.046875 356.851563 321.628906 366.03125 315.15625 M 310.554688 299.371094 C 307.433594 300.972656 305.898438 304.0625 305.941406 308.636719 C 305.988281 313.210938 509.09375 462.121094 509.09375 462.121094 M 503.015625 458.566406 C 524.441406 429.785156 539.894531 398.746094 549.378906 365.460938 M 490.78125 352.164063 C 476.390625 323.644531 478.828125 297.328125 498.097656 273.226563 M 421.441406 332.421875 C 414.421875 313.464844 416.046875 295.949219 426.3125 279.878906 M 365.972656 316.621094 C 361.695313 305.027344 362.664063 294.554688 368.882813 285.203125 M 311.453125 290.523438 C 309.121094 293.144531 308.804688 296.578125 310.5 300.828125 C 312.195313 305.078125 555.375 370.5625 555.375 370.5625 M 548.425781 369.441406 C 558.007813 334.867188 561.207031 300.34375 558.023438 265.878906 M 498.796875 270.816406 C 475.074219 249.414063 467.839844 223.996094 477.101563 194.5625 M 427.003906 277.449219 C 413.613281 262.308594 408.796875 245.390625 412.566406 226.699219 M 369.574219 282.757813 C 361.394531 273.492188 358.515625 263.371094 360.9375 252.40625 M 309.308594 278.113281 C 308.082031 281.398438 309.027344 284.714844 312.140625 288.066406 C 315.257813 291.414063 565.671875 264.636719 565.671875 264.636719 M 558.785156 266.101563 C 555.230469 230.398438 545.746094 197.050781 530.328125 166.0625 M 477.242188 194.121094 C 447.390625 182.738281 431.46875 161.652344 429.46875 130.855469 M 412.695313 226.242188 C 394.738281 216.964844 384.140625 202.925781 380.898438 184.132813 M 361.058594 251.941406 C 350.085938 246.246094 343.746094 237.855469 342.042969 226.753906 M 303.1875 269.371094 C 303.230469 272.882813 305.308594 275.636719 309.421875 277.636719 C 313.539063 279.632813 537.371094 164.203125 537.371094 164.203125 M 531.480469 168.054688 C 515.265625 136.050781 494.375 108.382813 468.804688 85.054688 M 431.925781 131.800781 C 399.980469 131.96875 377.511719 118.054688 364.527344 90.0625 M 383.34375 185.066406 C 363.242188 182.902344 348.289063 173.640625 338.480469 157.289063 M 344.472656 227.683594 C 332.1875 226.339844 323.242188 220.804688 317.644531 211.066406 M 296.808594 264.847656 C 298.113281 268.101563 301.046875 269.914063 305.605469 270.296875 C 310.164063 270.671875 477.1875 82.179688 477.1875 82.179688 M 473.085938 87.902344 C 446.40625 63.914063 416.929688 45.660156 384.65625 33.144531 M 363.179688 89.128906 C 333.449219 100.824219 307.476563 95.96875 285.253906 74.554688 M 337.117188 156.347656 C 317.59375 161.589844 300.304688 158.355469 285.25 146.648438 M 316.269531 210.121094 C 304.328125 213.3125 293.988281 211.382813 285.25 204.324219 M 285.246094 261.996094 C 287.640625 264.5625 291.03125 265.199219 295.417969 263.902344 C 299.804688 262.605469 387.460938 26.507813 387.460938 26.507813 M 385.703125 33.324219 C 352.15625 20.59375 318.078125 14.21875 283.464844 14.203125 M 284.964844 74.222656 C 261.464844 95.871094 235.488281 100.726563 207.035156 88.785156 M 284.941406 146.320313 C 268.628906 158.257813 251.339844 161.492188 233.074219 156.011719 M 284.925781 203.996094 C 274.945313 211.285156 264.605469 213.21875 253.90625 209.789063 M 274.738281 263.574219 C 277.898438 265.101563 281.289063 264.46875 284.910156 261.675781 C 288.535156 258.882813 284.984375 7.0625 284.984375 7.0625 M 285.804688 14.054688 C 249.925781 14.300781 215.847656 20.664063 183.566406 33.15625 M 205.335938 88.84375 C 191.242188 117.515625 168.773438 131.425781 137.925781 130.574219 M 231.359375 156.078125 C 220.460938 173.105469 205.503906 182.363281 186.492188 183.851563 M 252.179688 209.867188 C 245.5 220.269531 236.558594 225.804688 225.347656 226.476563 M 264.199219 269.101563 C 267.695313 269.382813 270.628906 267.570313 273 263.65625 C 275.367188 259.742188 181.089844 26.210938 181.089844 26.210938 M 184.382813 32.433594 C 151.015625 45.621094 121.539063 63.871094 95.949219 87.179688 M 137.660156 130.773438 C 134.875 162.601563 118.949219 183.6875 89.875 194.035156 M 186.210938 184.070313 C 182.199219 203.882813 171.601563 217.914063 154.410156 226.171875 M 225.058594 226.703125 C 222.589844 238.8125 216.25 247.203125 206.039063 251.886719 M 257.664063 277.597656 C 261.027344 276.597656 263.105469 273.84375 263.902344 269.339844 C 264.699219 264.835938 92.425781 81.128906 92.425781 81.128906 M 97.746094 85.742188 C 71.394531 110.09375 50.5 137.757813 35.058594 168.734375 M 89.761719 193.851563 C 98.667969 224.53125 91.433594 249.949219 68.058594 270.097656 M 154.292969 226.003906 C 157.707031 245.929688 152.890625 262.847656 139.847656 276.753906 M 205.914063 251.730469 C 207.988281 263.914063 205.109375 274.03125 197.273438 282.078125 M 254.703125 287.40625 C 257.476563 285.257813 258.421875 281.941406 257.535156 277.453125 C 256.652344 272.964844 29.652344 163.894531 29.652344 163.894531 M 36.277344 166.273438 C 20.503906 198.496094 11.011719 231.84375 7.804688 266.308594 M 68.195313 268.570313 C 87.578125 293.96875 90.015625 320.28125 75.5 347.511719 M 139.980469 275.246094 C 150.363281 292.59375 151.984375 310.105469 144.84375 327.789063 M 197.410156 280.585938 C 203.742188 291.199219 204.714844 301.675781 200.316406 312.007813 M 255.792969 296.230469 C 257.601563 293.226563 257.285156 289.789063 254.839844 285.925781 C 252.394531 282.058594 1.320313 262.355469 1.320313 262.355469 M 8.359375 262.179688 C 5.292969 297.929688 8.484375 332.449219 17.945313 365.746094 M 75.304688 349.933594 C 102.554688 366.609375 114.332031 390.269531 110.632813 420.90625 M 144.65625 330.226563 C 160.601563 342.648438 168.441406 358.394531 168.167969 377.460938 M 200.136719 314.453125 C 209.875 322.066406 214.5625 331.484375 214.199219 342.710938 M 260.226563 307.953125 C 260.828125 304.496094 259.292969 301.414063 255.617188 298.691406 C 251.9375 295.972656 10.699219 368.289063 10.699219 368.289063 M 17.199219 365.585938 C 27.253906 400.027344 42.703125 431.066406 63.550781 458.695313 M 110.976563 420.722656 C 142.410156 426.429688 161.9375 444.234375 169.558594 474.140625 M 168.523438 377.289063 C 187.882813 383.117188 200.878906 394.96875 207.515625 412.847656 M 214.5625 342.550781 C 226.394531 346.128906 234.167969 353.214844 237.882813 363.8125 M 268.25 314.78125 C 267.5625 311.339844 265.015625 309.015625 260.601563 307.808594 C 256.1875 306.597656 57.367188 461.179688 57.367188 461.179688 M 62.449219 456.308594 C 84.265625 484.789063 109.882813 508.152344 139.304688 526.386719 M 169.699219 474.144531 C 201.074219 468.113281 225.714844 477.664063 243.621094 502.792969 M 207.675781 412.863281 C 227.828125 411.300781 244.230469 417.65625 256.875 431.929688 M 238.054688 363.828125 C 250.378906 362.894531 260.1875 366.695313 267.480469 375.238281 M 278.082031 318.546875 C 276.199219 315.585938 272.984375 314.339844 268.433594 314.804688 C 263.882813 315.273438 134.324219 531.238281 134.324219 531.238281 M 137.304688 524.859375 C 167.9375 543.539063 200.265625 556.066406 234.285156 562.445313 "/>
<path style="fill:none;stroke-width:56.693;stroke-linecap:butt;stroke-linejoin:miter;stroke:rgb(0%,0%,0%);stroke-opacity:1;stroke-miterlimit:4;" d="M 2433.398438 709.789063 C 2704.140625 879.359375 2968.398438 879.398438 3226.171875 709.789063 M 2566.015625 1418.421875 C 2748.320313 1505.804688 2924.179688 1505.804688 3093.710938 1418.421875 M 2672.109375 1985.335938 C 2783.632813 2038.617188 2888.828125 2038.65625 2987.695313 1985.335938 M 2881.71875 2552.289063 C 2853.476563 2573.109375 2818.984375 2573.109375 2778.203125 2552.289063 C 2737.460938 2531.46875 2309.84375 49.59375 2309.84375 49.59375 M 2314.609375 119.828125 C 2667.734375 56.390625 3014.414063 56.390625 3354.6875 119.828125 M 3252.8125 720.726563 C 3444.023438 976.703125 3690.429688 1072.132813 3992.070313 1007.09375 M 3120.507813 1429.4375 C 3258.90625 1576.78125 3422.929688 1640.296875 3612.539063 1620.023438 M 3014.648438 1996.390625 C 3099.375 2086.390625 3197.460938 2124.398438 3308.90625 2110.414063 M 3005.273438 2600.765625 C 2971.40625 2609.945313 2939.257813 2597.484375 2908.789063 2563.382813 C 2878.28125 2529.242188 3376.09375 60.492188 3376.09375 60.492188 M 3355.15625 127.71875 C 3707.382813 196.078125 4030.664063 321.3125 4325 503.421875 M 3981.835938 1004.007813 C 4067.65625 1311.742188 4262.929688 1489.789063 4567.734375 1538.109375 M 3602.460938 1617.054688 C 3678.28125 1804.4375 3808.242188 1922.953125 3992.382813 1972.523438 M 3298.90625 2107.484375 C 3345.429688 2222.015625 3423.164063 2292.875 3532.148438 2320.101563 M 3071.875 2667.71875 C 3036.992188 2664.007813 3011.484375 2640.765625 2995.390625 2597.953125 C 2979.296875 2555.140625 4335.273438 432.875 4335.273438 432.875 M 4291.484375 488.03125 C 4595.195313 678.96875 4851.40625 912.523438 5060.117188 1188.695313 M 4555.078125 1524.632813 C 4523.90625 1842.601563 4641.679688 2079.164063 4908.4375 2234.359375 M 3979.804688 1959.242188 C 3982.851563 2161.390625 4061.25 2318.851563 4215.039063 2431.585938 M 3519.609375 2306.9375 C 3521.640625 2430.53125 3568.515625 2524.710938 3660.3125 2589.4375 M 3105.546875 2747.289063 C 3074.335938 2731.273438 3058.984375 2700.375 3059.414063 2654.632813 C 3059.882813 2608.890625 5090.9375 1119.789063 5090.9375 1119.789063 M 5030.15625 1155.335938 C 5244.414063 1443.148438 5398.945313 1753.539063 5493.789063 2086.390625 M 4907.8125 2219.359375 C 4763.90625 2504.554688 4788.28125 2767.71875 4980.976563 3008.734375 M 4214.414063 2416.78125 C 4144.21875 2606.351563 4160.46875 2781.507813 4263.125 2942.210938 M 3659.726563 2574.789063 C 3616.953125 2690.726563 3626.640625 2795.453125 3688.828125 2888.96875 M 3114.53125 2835.765625 C 3091.210938 2809.554688 3088.046875 2775.21875 3105 2732.71875 C 3121.953125 2690.21875 5553.75 2035.375 5553.75 2035.375 M 5484.257813 2046.585938 C 5580.078125 2392.328125 5612.070313 2737.5625 5580.234375 3082.210938 M 4987.96875 3032.835938 C 4750.742188 3246.859375 4678.398438 3501.039063 4771.015625 3795.375 M 4270.039063 2966.507813 C 4136.132813 3117.914063 4087.96875 3287.09375 4125.664063 3474.007813 M 3695.742188 2913.421875 C 3613.945313 3006.078125 3585.15625 3107.289063 3609.375 3216.9375 M 3093.085938 2959.867188 C 3080.820313 2927.015625 3090.273438 2893.851563 3121.40625 2860.335938 C 3152.578125 2826.859375 5656.71875 3094.632813 5656.71875 3094.632813 M 5587.851563 3079.984375 C 5552.304688 3437.015625 5457.460938 3770.492188 5303.28125 4080.375 M 4772.421875 3799.789063 C 4473.90625 3913.617188 4314.6875 4124.476563 4294.6875 4432.445313 M 4126.953125 3478.578125 C 3947.382813 3571.351563 3841.40625 3711.742188 3808.984375 3899.671875 M 3610.585938 3221.585938 C 3500.859375 3278.539063 3437.460938 3362.445313 3420.429688 3473.460938 M 3031.875 3047.289063 C 3032.304688 3012.171875 3053.085938 2984.632813 3094.21875 2964.632813 C 3135.390625 2944.671875 5373.710938 4098.96875 5373.710938 4098.96875 M 5314.804688 4060.453125 C 5152.65625 4380.492188 4943.75 4657.171875 4688.046875 4890.453125 M 4319.257813 4422.992188 C 3999.804688 4421.3125 3775.117188 4560.453125 3645.273438 4840.375 M 3833.4375 3890.335938 C 3632.421875 3911.976563 3482.890625 4004.59375 3384.804688 4168.109375 M 3444.726563 3464.164063 C 3321.875 3477.601563 3232.421875 3532.953125 3176.445313 3630.335938 M 2968.085938 3092.523438 C 2981.132813 3059.984375 3010.46875 3041.859375 3056.054688 3038.03125 C 3101.640625 3034.28125 4771.875 4919.203125 4771.875 4919.203125 M 4730.859375 4861.976563 C 4464.0625 5101.859375 4169.296875 5284.398438 3846.5625 5409.554688 M 3631.796875 4849.710938 C 3334.492188 4732.757813 3074.765625 4781.3125 2852.539063 4995.453125 M 3371.171875 4177.523438 C 3175.9375 4125.101563 3003.046875 4157.445313 2852.5 4274.515625 M 3162.695313 3639.789063 C 3043.28125 3607.875 2939.882813 3627.171875 2852.5 3697.757813 M 2852.460938 3121.039063 C 2876.40625 3095.375 2910.3125 3089.007813 2954.179688 3101.976563 C 2998.046875 3114.945313 3874.609375 5475.921875 3874.609375 5475.921875 M 3857.03125 5407.757813 C 3521.5625 5535.0625 3180.78125 5598.8125 2834.648438 5598.96875 M 2849.648438 4998.773438 C 2614.648438 4782.289063 2354.882813 4733.734375 2070.351563 4853.148438 M 2849.414063 4277.796875 C 2686.289063 4158.421875 2513.398438 4126.078125 2330.742188 4180.882813 M 2849.257813 3701.039063 C 2749.453125 3628.148438 2646.054688 3608.8125 2539.0625 3643.109375 M 2747.382813 3105.257813 C 2778.984375 3089.984375 2812.890625 3096.3125 2849.101563 3124.242188 C 2885.351563 3152.171875 2849.84375 5670.375 2849.84375 5670.375 M 2858.046875 5600.453125 C 2499.257813 5597.992188 2158.476563 5534.359375 1835.664063 5409.4375 M 2053.359375 4852.5625 C 1912.421875 4565.84375 1687.734375 4426.742188 1379.257813 4435.257813 M 2313.59375 4180.21875 C 2204.609375 4009.945313 2055.039063 3917.367188 1864.921875 3902.484375 M 2521.796875 3642.328125 C 2455 3538.304688 2365.585938 3482.953125 2253.476563 3476.234375 M 2641.992188 3049.984375 C 2676.953125 3047.171875 2706.289063 3065.296875 2730 3104.4375 C 2753.671875 3143.578125 1810.898438 5478.890625 1810.898438 5478.890625 M 1843.828125 5416.664063 C 1510.15625 5284.789063 1215.390625 5102.289063 959.492188 4869.203125 M 1376.601563 4433.265625 C 1348.75 4114.984375 1189.492188 3904.125 898.75 3800.648438 M 1862.109375 3900.296875 C 1821.992188 3702.171875 1716.015625 3561.859375 1544.101563 3479.28125 M 2250.585938 3473.96875 C 2225.898438 3352.875 2162.5 3268.96875 2060.390625 3222.132813 M 2576.640625 2965.023438 C 2610.273438 2975.023438 2631.054688 3002.5625 2639.023438 3047.601563 C 2646.992188 3092.640625 924.257813 4929.710938 924.257813 4929.710938 M 977.460938 4883.578125 C 713.945313 4640.0625 505 4363.421875 350.585938 4053.65625 M 897.617188 3802.484375 C 986.679688 3495.6875 914.335938 3241.507813 680.585938 3040.023438 M 1542.929688 3480.960938 C 1577.070313 3281.703125 1528.90625 3112.523438 1398.476563 2973.460938 M 2059.140625 3223.695313 C 2079.882813 3101.859375 2051.09375 3000.6875 1972.734375 2920.21875 M 2547.03125 2866.9375 C 2574.765625 2888.421875 2584.21875 2921.585938 2575.351563 2966.46875 C 2566.523438 3011.351563 296.523438 4102.054688 296.523438 4102.054688 M 362.773438 4078.265625 C 205.039063 3756.039063 110.117188 3422.5625 78.046875 3077.914063 M 681.953125 3055.296875 C 875.78125 2801.3125 900.15625 2538.1875 755 2265.882813 M 1399.804688 2988.539063 C 1503.632813 2815.0625 1519.84375 2639.945313 1448.4375 2463.109375 M 1974.101563 2935.140625 C 2037.421875 2829.007813 2047.148438 2724.242188 2003.164063 2620.921875 M 2557.929688 2778.695313 C 2576.015625 2808.734375 2572.851563 2843.109375 2548.398438 2881.742188 C 2523.945313 2920.414063 13.203125 3117.445313 13.203125 3117.445313 M 83.59375 3119.203125 C 52.929688 2761.703125 84.84375 2416.507813 179.453125 2083.539063 M 753.046875 2241.664063 C 1025.546875 2074.90625 1143.320313 1838.304688 1106.328125 1531.9375 M 1446.5625 2438.734375 C 1606.015625 2314.515625 1684.414063 2157.054688 1681.679688 1966.390625 M 2001.367188 2596.46875 C 2098.75 2520.335938 2145.625 2426.15625 2141.992188 2313.890625 M 2602.265625 2661.46875 C 2608.28125 2696.039063 2592.929688 2726.859375 2556.171875 2754.085938 C 2519.375 2781.273438 106.992188 2058.109375 106.992188 2058.109375 M 171.992188 2085.140625 C 272.539063 1740.726563 427.03125 1430.335938 635.507813 1154.046875 M 1109.765625 1533.773438 C 1424.101563 1476.703125 1619.375 1298.65625 1695.585938 999.59375 M 1685.234375 1968.109375 C 1878.828125 1909.828125 2008.789063 1791.3125 2075.15625 1612.523438 M 2145.625 2315.492188 C 2263.945313 2279.710938 2341.679688 2208.851563 2378.828125 2102.875 M 2682.5 2593.1875 C 2675.625 2627.601563 2650.15625 2650.84375 2606.015625 2662.914063 C 2561.875 2675.023438 573.671875 1129.203125 573.671875 1129.203125 M 624.492188 1177.914063 C 842.65625 893.109375 1098.828125 659.476563 1393.046875 477.132813 M 1696.992188 999.554688 C 2010.742188 1059.867188 2257.148438 964.359375 2436.210938 713.070313 M 2076.757813 1612.367188 C 2278.28125 1627.992188 2442.304688 1564.4375 2568.75 1421.703125 M 2380.546875 2102.71875 C 2503.789063 2112.054688 2601.875 2074.046875 2674.804688 1988.617188 M 2780.820313 2555.53125 C 2761.992188 2585.140625 2729.84375 2597.601563 2684.335938 2592.953125 C 2638.828125 2588.265625 1343.242188 428.617188 1343.242188 428.617188 M 1373.046875 492.40625 C 1679.375 305.609375 2002.65625 180.335938 2342.851563 116.546875 " transform="matrix(0.1,0,0,-0.1,0,574.1)"/>
<path style=" stroke:none;fill-rule:evenodd;fill:rgb(0%,0%,0%);fill-opacity:1;" d="M 164.941406 170.210938 C 208.035156 215.261719 238 253.835938 254.839844 285.925781 C 260.042969 304.351563 265.5625 300.144531 270.535156 294.199219 C 218.625 635.179688 -104.726563 314.121094 133.910156 87.027344 C 119.167969 117.394531 129.507813 145.121094 164.941406 170.210938 Z M 164.941406 170.210938 "/>
<path style="fill-rule:evenodd;fill:rgb(100%,100%,100%);fill-opacity:1;stroke-width:2.16;stroke-linecap:butt;stroke-linejoin:miter;stroke:rgb(10.594177%,9.812927%,9.423828%);stroke-opacity:1;stroke-miterlimit:4;" d="M 2447.148438 2558.539063 C 2201.757813 3028.8125 1744.375 3432.015625 1075.039063 3768.226563 C 344.765625 1832.171875 2030.117188 762.171875 2447.148438 2558.539063 Z M 2447.148438 2558.539063 " transform="matrix(0.1,0,0,-0.1,0,574.1)"/>
<path style=" stroke:none;fill-rule:evenodd;fill:rgb(0%,0%,0%);fill-opacity:1;" d="M 406.027344 170.941406 C 362.929688 215.996094 332.964844 254.566406 316.125 286.65625 C 310.925781 305.078125 305.402344 300.871094 300.433594 294.929688 C 352.339844 635.910156 675.691406 314.851563 437.054688 87.757813 C 451.800781 118.121094 441.457031 145.855469 406.027344 170.941406 Z M 406.027344 170.941406 "/>
<path style="fill-rule:evenodd;fill:rgb(100%,100%,100%);fill-opacity:1;stroke-width:2.16;stroke-linecap:butt;stroke-linejoin:miter;stroke:rgb(10.594177%,9.812927%,9.423828%);stroke-opacity:1;stroke-miterlimit:4;" d="M 3262.5 2551.234375 C 3507.890625 3021.507813 3965.273438 3424.710938 4634.609375 3760.882813 C 5364.882813 1824.867188 3679.570313 754.828125 3262.5 2551.234375 Z M 3262.5 2551.234375 " transform="matrix(0.1,0,0,-0.1,0,574.1)"/>
</g>
</svg>
